<svg width="14" height="16" viewBox="0 0 14 16" fill="none" xmlns="http://www.w3.org/2000/svg">
<path d="M13.1875 2.375H9.8125V1.53125C9.8125 1.15829 9.66434 0.800604 9.40062 0.536881C9.1369 0.273158 8.77921 0.125 8.40625 0.125H5.59375C5.22079 0.125 4.8631 0.273158 4.59938 0.536881C4.33566 0.800604 4.1875 1.15829 4.1875 1.53125V2.375H0.8125C0.663316 2.375 0.520242 2.43426 0.414753 2.53975C0.309263 2.64524 0.25 2.78832 0.25 2.9375C0.25 3.08668 0.309263 3.22976 0.414753 3.33525C0.520242 3.44074 0.663316 3.5 0.8125 3.5H1.41016L2.07812 14.2198C2.12805 15.1638 2.85156 15.875 3.76562 15.875H10.2344C11.153 15.875 11.8621 15.1796 11.9219 14.2227L12.5898 3.5H13.1875C13.3367 3.5 13.4798 3.44074 13.5852 3.33525C13.6907 3.22976 13.75 3.08668 13.75 2.9375C13.75 2.78832 13.6907 2.64524 13.5852 2.53975C13.4798 2.43426 13.3367 2.375 13.1875 2.375ZM4.77004 13.625H4.75C4.60422 13.6251 4.4641 13.5686 4.35917 13.4674C4.25424 13.3662 4.19269 13.2282 4.1875 13.0825L3.90625 5.20754C3.90094 5.05835 3.9551 4.91317 4.05683 4.80392C4.15856 4.69467 4.29953 4.63031 4.44871 4.625C4.5979 4.61969 4.74308 4.67385 4.85233 4.77558C4.96158 4.87731 5.02594 5.01828 5.03125 5.16746L5.3125 13.0425C5.31518 13.1163 5.30327 13.19 5.27745 13.2593C5.25163 13.3286 5.21241 13.3921 5.16203 13.4462C5.11164 13.5003 5.05109 13.5439 4.98383 13.5746C4.91657 13.6053 4.84392 13.6224 4.77004 13.625ZM7.5625 13.0625C7.5625 13.2117 7.50324 13.3548 7.39775 13.4602C7.29226 13.5657 7.14918 13.625 7 13.625C6.85082 13.625 6.70774 13.5657 6.60225 13.4602C6.49676 13.3548 6.4375 13.2117 6.4375 13.0625V5.1875C6.4375 5.03832 6.49676 4.89524 6.60225 4.78975C6.70774 4.68426 6.85082 4.625 7 4.625C7.14918 4.625 7.29226 4.68426 7.39775 4.78975C7.50324 4.89524 7.5625 5.03832 7.5625 5.1875V13.0625ZM8.6875 2.375H5.3125V1.53125C5.31208 1.4942 5.31906 1.45743 5.33305 1.42312C5.34703 1.38881 5.36773 1.35763 5.39393 1.33143C5.42013 1.30523 5.45131 1.28453 5.48562 1.27055C5.51993 1.25656 5.5567 1.24958 5.59375 1.25H8.40625C8.4433 1.24958 8.48007 1.25656 8.51438 1.27055C8.54869 1.28453 8.57987 1.30523 8.60607 1.33143C8.63227 1.35763 8.65297 1.38881 8.66695 1.42312C8.68094 1.45743 8.68792 1.4942 8.6875 1.53125V2.375ZM9.8125 13.0825C9.80731 13.2282 9.74576 13.3662 9.64083 13.4674C9.5359 13.5686 9.39578 13.6251 9.25 13.625H9.22961C9.15576 13.6224 9.08314 13.6052 9.01592 13.5745C8.9487 13.5438 8.88819 13.5002 8.83785 13.4461C8.78751 13.392 8.74832 13.3285 8.72252 13.2592C8.69672 13.19 8.68482 13.1163 8.6875 13.0425L8.96875 5.16746C8.97138 5.09359 8.98854 5.02097 9.01924 4.95373C9.04994 4.88649 9.09358 4.82595 9.14767 4.77558C9.20177 4.72521 9.26525 4.68599 9.33451 4.66015C9.40376 4.63431 9.47742 4.62237 9.55129 4.625C9.62516 4.62763 9.69778 4.64479 9.76502 4.67549C9.83226 4.70619 9.8928 4.74983 9.94317 4.80392C9.99354 4.85802 10.0328 4.9215 10.0586 4.99075C10.0844 5.06001 10.0964 5.13367 10.0938 5.20754L9.8125 13.0825Z" fill="#F42B5B"/>
</svg>
