<svg width="171" height="122" viewBox="0 0 171 122" fill="none" xmlns="http://www.w3.org/2000/svg">
<path opacity="0.3" d="M151.549 27.5672C151.549 27.5672 149.342 16.7664 141.975 17.5023C138.627 17.8363 136.386 19.5168 134.444 22.1237C131.952 25.4692 131.052 23.5251 127.492 24.6211C124.301 25.6048 124.791 28.3057 122.826 28.7963C120.861 29.2869 119.39 27.0766 116.689 27.5672C113.988 28.0578 112.514 30.7587 112.514 30.7587H161.617C161.487 29.8428 161.092 28.9848 160.482 28.2897C159.871 27.5945 159.072 27.0923 158.18 26.8444C154.986 25.8501 153.514 28.3057 151.549 27.5672Z" stroke="black" stroke-miterlimit="10"/>
<path opacity="0.3" d="M35.5483 26.852C35.5483 26.852 34.1522 20.0333 29.5046 20.4978C27.3883 20.7118 25.9766 21.7686 24.7501 23.4152C23.1844 25.5263 22.6155 24.2999 20.3635 24.981C18.3489 25.602 18.6595 27.306 17.4173 27.6166C16.1752 27.9271 15.2488 26.531 13.5448 26.8337C11.8408 27.1364 10.9092 28.8483 10.9092 28.8483H41.8999C41.8195 28.2686 41.5714 27.7251 41.1861 27.2847C40.8008 26.8442 40.2952 26.526 39.7314 26.3692C37.7168 25.7664 36.7878 27.3165 35.5483 26.852Z" stroke="black" stroke-miterlimit="10"/>
<path opacity="0.3" d="M114.053 96.2003C114.053 96.2003 112.827 90.2115 108.743 90.6212C106.887 90.8065 105.645 91.7381 104.568 93.1837C103.185 95.0365 102.691 93.9666 100.713 94.5668C98.9441 95.1122 99.2154 96.61 98.1273 96.8814C97.0391 97.1528 96.2223 95.9289 94.7349 96.2003C93.2475 96.4717 92.4229 97.9696 92.4229 97.9696H119.64C119.569 97.4606 119.351 96.9834 119.013 96.5968C118.674 96.2101 118.23 95.9308 117.735 95.7933C115.953 95.2479 115.136 96.61 114.053 96.2003Z" stroke="black" stroke-miterlimit="10"/>
<path opacity="0.3" d="M49.0578 85.6889C49.0578 85.6889 47.8313 79.7026 43.7474 80.1097C41.892 80.295 40.6499 81.2266 39.5722 82.6723C38.1917 84.525 37.6985 83.4551 35.7205 84.0553C33.9513 84.6007 34.2226 86.0986 33.1345 86.37C32.0463 86.6413 31.2295 85.4175 29.7421 85.6889C28.2547 85.9603 27.4301 87.4581 27.4301 87.4581H54.6474C54.5766 86.9492 54.3586 86.472 54.0201 86.0853C53.6817 85.6986 53.2376 85.4193 52.7424 85.2818C50.9627 84.7233 50.146 86.0855 49.0578 85.6889Z" stroke="black" stroke-miterlimit="10"/>
<path d="M140.008 35.4583L145.373 39.4326L107.814 62.2868L101.058 75.0057L57.9329 90.9029L13.0334 120.526H39.4339L67.6716 99.2481L110.596 83.5492L118.148 69.6379L154.316 44.7978L161.868 50.5622L170.414 29.6939V27.2983L140.008 35.4583Z" fill="#263238" stroke="#263238" stroke-linecap="round" stroke-linejoin="round"/>
<path d="M140.008 33.0602L145.373 37.0345L107.814 59.8887L101.058 72.6075L57.9328 88.5047L10.3743 120.526H36.7618L67.6716 96.8526L110.596 81.1537L118.148 67.2423L154.316 42.4023L161.868 48.1641L170.414 27.2983L140.008 33.0602Z" fill="white" stroke="#263238" stroke-linecap="round" stroke-linejoin="round"/>
<path d="M107.929 78.6274L108.808 79.3633" stroke="#263238" stroke-linecap="round" stroke-linejoin="round"/>
<path d="M102.647 74.1968L106.835 77.7118" stroke="#263238" stroke-linecap="round" stroke-linejoin="round"/>
<path d="M109.403 60.4863L112.185 62.4722" stroke="#263238" stroke-linecap="round" stroke-linejoin="round"/>
<path d="M66.2807 96.0571L58.2982 90.4492" stroke="#263238" stroke-linecap="round" stroke-linejoin="round"/>
<path d="M140.008 35.4582V33.0601L145.373 37.0344L143.606 38.1304L140.008 35.4582Z" fill="white" stroke="#263238" stroke-linecap="round" stroke-linejoin="round"/>
<path d="M161.868 50.5623V48.1642L154.316 42.4023V44.7979L161.868 50.5623Z" fill="white" stroke="#263238" stroke-miterlimit="10"/>
<path d="M70.8865 47.1255L69.3208 50.069C69.3208 50.069 69.6992 50.5675 69.8427 50.4866C69.9862 50.4057 70.756 49.0722 70.756 49.0722L70.1402 51.3503C70.1402 51.3503 70.3881 51.7444 70.5421 51.5721C70.696 51.3999 71.2571 49.769 71.398 49.7455C71.5389 49.722 71.8703 49.1322 71.8703 49.1322L71.3014 50.9824C71.3014 50.9824 71.0874 51.8514 71.4658 51.7913C71.8442 51.7313 71.8703 50.891 71.8703 50.891L72.674 49.6567L72.3739 50.9824C72.3739 50.9824 72.8959 51.3529 72.9767 51.0346C73.0576 50.7162 73.3421 49.4689 73.3421 49.4689C73.3421 49.4689 74.6468 47.9031 74.7982 47.7283C74.9496 47.5535 75.7194 45.6642 75.7194 45.6642L74.5555 44.0254L70.8865 47.1255Z" fill="white" stroke="#263238" stroke-linecap="round" stroke-linejoin="round"/>
<path d="M74.3389 44.3906L71.2388 45.197C71.2388 45.197 70.2968 47.4933 70.028 47.89C69.7592 48.2866 70.0828 48.3623 70.5656 48.1692C71.0483 47.9761 71.886 46.8853 71.886 46.8853C71.886 46.8853 73.3604 47.1045 73.8484 46.306" fill="white"/>
<path d="M74.3389 44.3906L71.2388 45.197C71.2388 45.197 70.2968 47.4933 70.028 47.89C69.7592 48.2866 70.0828 48.3623 70.5656 48.1692C71.0483 47.9761 71.886 46.8853 71.886 46.8853C71.886 46.8853 73.3604 47.1045 73.8484 46.306" stroke="#263238" stroke-linecap="round" stroke-linejoin="round"/>
<path d="M71.5415 48.2056L72.8724 48.9728" stroke="#263238" stroke-linecap="round" stroke-linejoin="round"/>
<path d="M93.3676 18.9374L99.8157 35.393L100.385 37.1753C100.385 37.1753 94.1765 39.7692 92.8874 39.9754C92.2857 40.0574 91.6908 40.1839 91.1077 40.3537L84.6126 24.0651L86.815 20.5579L92.0915 18.3633L93.3676 18.9374Z" fill="white" stroke="#263238" stroke-linecap="round" stroke-linejoin="round"/>
<path d="M93.4041 27.5752L96.439 37.1287" stroke="#263238" stroke-linecap="round" stroke-linejoin="round"/>
<path d="M91.7079 73.5513C91.6174 74.4084 91.4824 75.2603 91.3035 76.1034C91.1051 76.8262 90.4736 78.8042 90.5676 79.3209C90.6615 79.8376 91.1652 82.0505 91.4731 82.2149C91.781 82.3793 92.2403 82.4184 92.4908 82.2149C92.7413 82.0114 94.0148 79.5271 94.1348 78.6607C94.2548 77.7944 94.1739 74.9682 94.1922 74.7464C94.2105 74.5246 91.7079 73.5513 91.7079 73.5513Z" fill="#263238" stroke="#263238" stroke-linecap="round" stroke-linejoin="round"/>
<path d="M118.912 57.4043C118.912 57.4043 121 58.3698 121.276 58.3933C121.553 58.4168 123.933 58.6543 123.933 58.6543C123.933 58.6543 125.906 58.2681 126.214 58.4325C126.522 58.5969 126.415 59.3275 126.415 59.3275C126.415 59.3275 122.446 61.436 121.882 61.5717C121.318 61.7074 120.642 61.4673 120.264 61.5717L119.886 61.6787L120.204 62.2606L117.832 63.5367C117.832 63.5367 116.788 62.3363 116.746 61.6422C116.705 60.948 116.678 59.7424 116.678 59.7424L116.339 58.3255L118.912 57.4043Z" fill="#263238" stroke="#263238" stroke-linecap="round" stroke-linejoin="round"/>
<path d="M92.8222 18.5515C92.8222 18.5515 97.2584 29.8742 98.0987 31.6174C98.9389 33.3605 99.6853 35.4638 100.332 36.0092C100.98 36.5546 98.6649 30.2369 98.4457 28.9948C98.2265 27.7527 98.2605 25.4302 98.2605 25.4302L117.759 18.742L117.028 16.3125L100.745 18.2618C100.745 18.2618 97.4306 17.8965 96.7365 17.92C96.0424 17.9435 92.8222 18.5515 92.8222 18.5515Z" fill="#E9E9F0" stroke="#263238" stroke-linecap="round" stroke-linejoin="round"/>
<path d="M94.3018 18.2827C93.5007 18.4236 92.8222 18.5437 92.8222 18.5437C92.8222 18.5437 95.9275 26.4479 97.4332 30.0647C97.3078 27.9831 97.0013 25.9164 96.5173 23.888C95.9783 21.9467 95.2357 20.0679 94.3018 18.2827Z" fill="#E9E9F0" stroke="#263238" stroke-linecap="round" stroke-linejoin="round"/>
<path d="M98.858 20.3833L98.2604 25.4301L99.8157 20.6286" stroke="#263238" stroke-linecap="round" stroke-linejoin="round"/>
<path d="M117.028 16.3121L118.226 16.1294L118.698 18.2509L117.759 18.7389L117.028 16.3121Z" fill="white" stroke="#263238" stroke-linecap="round" stroke-linejoin="round"/>
<path d="M122.521 15.519C122.521 15.519 123.526 15.6861 123.505 15.9287C123.484 16.1714 123.127 17.4945 123.127 17.4945C122.645 17.6146 122.142 17.6146 121.66 17.4945C121.026 17.2779 120.82 16.8108 120.979 16.375C121.138 15.9392 122.521 15.519 122.521 15.519Z" fill="white" stroke="#263238" stroke-linecap="round" stroke-linejoin="round"/>
<path d="M121.788 15.9863L122.618 16.3021L122.529 17.3146" stroke="#263238" stroke-linecap="round" stroke-linejoin="round"/>
<path d="M121.483 16.2051L121.976 16.6539C122.005 16.7748 122.005 16.901 121.976 17.0219" stroke="#263238" stroke-linecap="round" stroke-linejoin="round"/>
<path d="M118.229 16.1297L121.36 15.4173C121.36 15.4173 124.364 14.1673 124.47 14.3395C124.532 14.4155 124.561 14.5121 124.553 14.6094C124.545 14.7067 124.499 14.797 124.426 14.8614C124.249 15.0102 122.059 15.8009 121.801 15.9835C121.543 16.1662 121.381 16.5994 121.566 16.8212C121.675 16.9748 121.82 17.1001 121.987 17.1867C122.155 17.2734 122.34 17.319 122.529 17.3196C122.983 17.2753 124.095 17.1265 124.123 17.2935C124.152 17.4605 124.254 17.6719 123.862 17.8154C123.471 17.9589 122.876 17.8937 122.586 17.9511C122.297 18.0085 121.125 18.3556 120.679 18.3165C120.271 18.254 119.869 18.1517 119.481 18.0111L118.685 18.2721L118.229 16.1297Z" fill="white" stroke="#263238" stroke-linecap="round" stroke-linejoin="round"/>
<path d="M99.4399 35.4272C99.4399 35.4272 102.702 41.7683 102.958 41.7736C103.213 41.7788 106.167 39.5529 106.246 39.4511C106.324 39.3493 102.31 37.0555 101.178 35.876C100.045 34.6965 99.0459 33.3892 99.0459 33.3892L99.4399 35.4272Z" fill="#E9E9F0" stroke="#263238" stroke-linecap="round" stroke-linejoin="round"/>
<path d="M100.385 37.1753L101.95 39.9049C101.95 39.9049 110.136 38.9628 112.91 38.7775C115.684 38.5923 116.663 38.8871 116.663 38.8871L119.418 57.3965L115.016 59.3484L110.901 45.5023C110.901 45.5023 101.736 47.9996 100.398 48.151C99.7255 48.211 99.0601 48.3306 98.4092 48.5085C98.4092 48.5085 95.8831 65.6139 95.69 67.8737C95.4969 70.1336 95.5126 74.2671 95.5126 74.2671L94.2444 75.4831C94.2444 75.4831 91.507 74.0296 91.3739 73.8052C91.2408 73.5808 89.8525 52.595 89.8525 52.595L89.3306 44.3958L91.1051 40.3641L100.385 37.1753Z" fill="#E9E9F0" stroke="#263238" stroke-linecap="round" stroke-linejoin="round"/>
<path d="M92.1202 40.9121L100.771 37.9373L100.385 37.1753L91.9976 40.0249L92.1202 40.9121Z" fill="#263238" stroke="#263238" stroke-linecap="round" stroke-linejoin="round"/>
<path d="M95.7553 38.7331L96.1598 39.7012L98.0987 39.0149L97.7333 38.0859L95.7553 38.7331Z" fill="white" stroke="#263238" stroke-linecap="round" stroke-linejoin="round"/>
<path d="M93.9208 56.6532L93.9025 55.6016" stroke="#263238" stroke-linecap="round" stroke-linejoin="round"/>
<path d="M94.2444 75.4722L93.9391 57.7588" stroke="#263238" stroke-linecap="round" stroke-linejoin="round"/>
<path d="M98.4092 48.4983C98.4092 48.4983 98.918 44.9807 99.9618 42.8931" stroke="#263238" stroke-linecap="round" stroke-linejoin="round"/>
<path d="M100.484 41.2568C100.484 41.2568 98.9676 43.7359 98.7354 44.2761" stroke="#263238" stroke-linecap="round" stroke-linejoin="round"/>
<path d="M113.677 44.6149L114.432 44.3774" stroke="#263238" stroke-linecap="round" stroke-linejoin="round"/>
<path d="M110.901 45.4914L112.9 44.8599" stroke="#263238" stroke-linecap="round" stroke-linejoin="round"/>
<path d="M90.8285 24.9162L93.044 26.3175L93.7407 23.0634L91.2408 22.291L90.8285 24.9162Z" fill="#263238" stroke="#263238" stroke-linecap="round" stroke-linejoin="round"/>
<path d="M91.8253 23.5824L89.936 27.7316L87.4283 21.0303L92.8222 18.5513L95.7918 24.1722L91.8253 23.5824Z" fill="white" stroke="#263238" stroke-linecap="round" stroke-linejoin="round"/>
<path d="M75.1218 43.3184L74.0989 44.3883L75.7272 46.2175L76.2543 45.3903L75.1218 43.3184Z" stroke="#263238" stroke-linecap="round" stroke-linejoin="round"/>
<path d="M86.815 20.5583L80.6513 25.4094L80.0303 38.097L74.8112 43.577L76.3404 45.8994L83.908 39.921L84.9362 32.6952L86.3688 36.8183L84.7118 46.8963C85.8531 47.347 87.0209 47.7278 88.2085 48.0366C89.9438 48.4646 92.1619 48.188 92.1619 48.188L92.5429 36.0876L87.684 20.3652L86.815 20.5583Z" fill="#E9E9F0" stroke="#263238" stroke-linecap="round" stroke-linejoin="round"/>
<path d="M87.0604 38.7466L91.5018 39.1745V40.8838L86.9742 40.2001" fill="#E9E9F0"/>
<path d="M87.0604 38.7466L91.5018 39.1745V40.8838L86.9742 40.2001" stroke="#263238" stroke-linecap="round" stroke-linejoin="round"/>
<path d="M87.6736 20.3525L86.8151 20.5587L85.6904 21.4433C86.2085 23.3864 86.8804 25.2851 87.6997 27.1216C88.6444 29.2093 90.4319 31.6257 91.614 33.1236L87.6736 20.3525Z" fill="#E9E9F0" stroke="#263238" stroke-linecap="round" stroke-linejoin="round"/>
<path d="M93.044 26.3169L88.7174 29.9702L80.6879 28.9082L76.8858 31.8961L76.0664 33.8323L79.3361 34.3542L82.4206 31.0245C82.4206 31.0245 88.6234 32.1648 88.9601 32.0526C89.2967 31.9404 92.6134 27.4207 92.6134 27.4207L93.044 26.3169Z" fill="#263238" stroke="#263238" stroke-linecap="round" stroke-linejoin="round"/>
<path d="M83.9341 12.2285C83.9341 12.2285 82.8199 12.5495 82.3058 11.8841C81.7917 11.2187 81.4525 10.3575 81.9065 10.501C82.2897 10.6469 82.6563 10.8332 82.9999 11.0569C82.9999 11.0569 82.8251 9.49115 83.193 9.41286C83.561 9.33458 83.7149 10.0287 83.7149 10.0287C83.7149 10.0287 85.3172 8.87008 87.1073 8.65871C88.8975 8.44734 91.5435 9.45461 91.9297 9.84865C92.3159 10.2427 92.0576 13.7995 91.9819 14.0526C91.9062 14.3057 91.7549 14.9137 91.4783 15.0964C91.2017 15.2791 90.5597 15.5348 90.2231 15.2478C89.8865 14.9607 89.9204 14.5484 89.3072 14.444C88.6939 14.3396 87.1908 14.3135 87.0917 13.682C86.9925 13.0505 87.6553 11.918 87.0343 11.9154C86.4132 11.9128 84.8631 12.4556 84.4482 12.4712C84.0333 12.4869 83.9341 12.2285 83.9341 12.2285Z" fill="#263238" stroke="#263238" stroke-linecap="round" stroke-linejoin="round"/>
<path d="M83.9341 12.2283V15.3911L84.5657 16.2235L84.3047 19.2088L85.6095 19.1123C85.6095 19.1123 86.4784 21.6748 86.7316 21.7479C86.9847 21.8209 88.0807 21.1372 88.0807 21.1372C88.0807 21.1372 91.6427 23.7233 91.8097 23.5824C91.9767 23.4415 92.6682 18.9922 92.7857 18.8461C92.9031 18.6999 92.2637 16.367 92.2637 16.367C92.2637 16.367 92.77 15.3232 92.6291 14.5404C92.4882 13.7575 92.2377 13.6766 92.2377 13.6766C92.2377 13.6766 91.6923 13.3713 91.5122 13.6766C91.3321 13.9819 90.7841 14.9109 90.7841 14.9109L89.9882 13.9089C89.9882 13.9089 87.7258 13.7158 87.7519 13.4052C87.778 13.0947 88.2738 11.5342 88.1329 11.3646C87.992 11.195 85.3094 11.3176 83.9341 12.2283Z" fill="white" stroke="#263238" stroke-linecap="round" stroke-linejoin="round"/>
<path d="M87.0003 15.9779C87.1047 16.2388 87.0838 16.4998 86.9534 16.5468C86.8229 16.5937 86.6324 16.4293 86.5254 16.1684C86.4184 15.9074 86.4419 15.6465 86.5724 15.6021C86.7028 15.5578 86.8933 15.7169 87.0003 15.9779Z" fill="#263238"/>
<path d="M85.1345 15.6782C85.1345 15.6782 85.8913 17.2779 86.3506 17.4031C86.8098 17.5284 88.112 17.2544 88.279 16.8003C88.446 16.3463 87.9867 14.731 87.9867 14.731L85.1345 15.6782Z" stroke="#263238" stroke-linecap="round" stroke-linejoin="round"/>
<path d="M87.9868 14.7302L91.5357 13.6577" stroke="#263238" stroke-linecap="round" stroke-linejoin="round"/>
<path d="M85.1345 15.6782L82.8825 16.5942C82.8825 16.5942 83.3914 17.6197 84.2551 17.4788" stroke="#263238" stroke-linecap="round" stroke-linejoin="round"/>
<path d="M87.1752 18.7936C87.1752 18.7936 88.4225 18.6449 88.6913 17.5176" stroke="#263238" stroke-linecap="round" stroke-linejoin="round"/>
<path d="M88.0963 21.1371C88.0963 21.1371 89.9778 19.8453 90.2074 19.6522C90.4371 19.4591 90.6693 18.752 90.6693 18.752C90.6693 18.752 90.4084 20.9048 90.2309 21.3615C90.0535 21.8181 89.8525 22.3087 89.8525 22.3087L88.0963 21.1371Z" fill="#263238" stroke="#263238" stroke-linecap="round" stroke-linejoin="round"/>
<path d="M92.2872 16.3672C92.2872 16.3672 91.9976 17.1631 91.5253 17.2075" stroke="#263238" stroke-linecap="round" stroke-linejoin="round"/>
<path d="M85.8339 14.9712C85.988 14.7386 86.211 14.56 86.4716 14.4604C86.7322 14.3607 87.0174 14.345 87.2874 14.4154" stroke="#263238" stroke-linecap="round" stroke-linejoin="round"/>
<path d="M63.8956 52.3944L64.4723 50.8783L65.6727 49.7431C65.6727 49.7431 66.0902 48.9838 66.3434 49.1377C66.5965 49.2917 66.4477 49.4561 66.3434 49.7562C66.1529 50.0763 65.9193 50.3687 65.6492 50.6252C65.6492 50.6252 67.9978 49.0595 68.1283 49.0255C68.2588 48.9916 68.6502 49.2447 68.4414 49.4952C68.2327 49.7458 66.6513 50.8 66.6513 50.8L69.2243 49.6492C69.2243 49.6492 69.4304 50.3303 69.1512 50.4816C68.872 50.633 67.4211 51.6168 67.4211 51.6168C67.4211 51.6168 68.551 51.3141 68.872 51.1653C69.193 51.0166 69.3287 51.515 69.0938 51.6716C68.8589 51.8282 67.4133 52.7154 67.4133 52.7154C67.4133 52.7154 68.812 52.3918 68.752 52.564C68.6919 52.7363 68.7259 52.872 68.3214 52.9685C67.9169 53.0651 66.3042 53.8114 66.3042 53.8114L64.0835 54.4612L63.8956 52.3944Z" fill="white" stroke="#263238" stroke-linecap="round" stroke-linejoin="round"/>
<path d="M63.084 52.9274L63.8982 52.395L64.8664 54.5061L63.7077 55.2264L63.084 52.9274Z" fill="white" stroke="#263238" stroke-linecap="round" stroke-linejoin="round"/>
<path d="M32.6361 72.2739C32.6361 72.2739 32.8631 75.0452 32.8397 75.3218C32.8162 75.5985 34.0139 76.8693 34.3219 77.0807C34.6298 77.292 35.731 76.9685 35.731 76.9685C35.731 76.9685 36.9418 75.3479 36.8427 74.8808C36.7933 74.6101 36.649 74.3658 36.4356 74.1919L34.9403 72.7906L34.4628 72.1982L32.6361 72.2739Z" fill="white" stroke="#263238" stroke-linecap="round" stroke-linejoin="round"/>
<path d="M34.7446 75.4395L34.1262 76.131C34.1262 76.131 34.4132 76.5772 34.7003 76.5067L34.9847 76.4389" stroke="#263238" stroke-linecap="round" stroke-linejoin="round"/>
<path d="M34.4628 72.1982C34.4628 72.1982 36.0285 73.5891 36.3391 73.7092C36.4695 73.7682 36.5785 73.8661 36.6514 73.9894C36.7242 74.1126 36.7573 74.2553 36.7461 74.3981C36.2606 74.9051 35.7372 75.3744 35.1804 75.802C34.8829 76.0108 34.6168 75.8464 34.7446 75.4393C34.8725 75.0322 35.1595 74.3955 35.1595 74.3955C35.1595 74.3955 34.5489 74.4346 34.4054 73.9571" fill="white"/>
<path d="M34.4628 72.1982C34.4628 72.1982 36.0285 73.5891 36.3391 73.7092C36.4695 73.7682 36.5785 73.8661 36.6514 73.9894C36.7242 74.1126 36.7573 74.2553 36.7461 74.3981C36.2606 74.9051 35.7372 75.3744 35.1804 75.802C34.8829 76.0108 34.6168 75.8464 34.7446 75.4393C34.8725 75.0322 35.1595 74.3955 35.1595 74.3955C35.1595 74.3955 34.5489 74.4346 34.4054 73.9571" stroke="#263238" stroke-linecap="round" stroke-linejoin="round"/>
<path d="M32.5135 71.0059L32.6387 72.2741C32.6387 72.2741 33.3016 72.7047 33.7713 72.6525C34.1475 72.5753 34.507 72.4322 34.8334 72.2297L35.2143 71.3555L32.5135 71.0059Z" fill="white" stroke="#263238" stroke-linecap="round" stroke-linejoin="round"/>
<path d="M58.7835 90.0708C58.7835 90.0708 57.9067 93.2231 57.8963 93.8781C57.9256 94.5726 57.9918 95.2651 58.0946 95.9527C58.0946 95.9527 58.3556 96.2136 59.0158 96.1249C59.4871 96.0893 59.9454 95.9532 60.3597 95.7256C60.511 95.5978 60.4928 94.7079 60.4928 94.7079C60.4928 94.7079 61.1399 94.8097 61.5992 94.8958C62.0585 94.9819 63.5642 94.3739 64.1487 94.0843C64.7333 93.7946 65.8267 93.0587 65.9754 92.4637C66.1241 91.8688 65.7144 91.6 65.5344 91.5843C65.3543 91.5687 63.0579 91.5582 62.5517 91.4669C62.0455 91.3756 61.1817 90.5092 61.1478 90.3657C61.1139 90.2222 58.7835 90.0708 58.7835 90.0708Z" fill="#263238" stroke="#263238" stroke-linecap="round" stroke-linejoin="round"/>
<path d="M46.4327 102.628L46.5423 104.087C46.5423 104.087 47.5861 105.441 47.9097 105.609C48.2332 105.776 48.9221 105.789 48.9796 106.214C49.037 106.639 49.1596 106.838 48.8204 106.997C48.4811 107.156 47.1268 107.647 46.6101 107.649C46.0934 107.652 45.1488 107.242 45.1488 107.242L45.0079 107.793C44.7051 107.908 44.3817 107.96 44.058 107.944C43.6817 107.939 43.3086 107.875 42.9516 107.756C42.9516 107.756 42.7271 106.569 42.8289 105.929C42.9307 105.29 43.3508 103.581 43.3508 103.581L43.7161 102.067L46.4327 102.628Z" fill="#263238" stroke="#263238" stroke-linecap="round" stroke-linejoin="round"/>
<path d="M40.9344 72.8454L42.1217 75.3245L45.4228 87.31L43.4343 102.338C43.4343 102.338 44.178 102.915 44.7808 102.967C45.3836 103.019 46.8815 102.912 46.8815 102.912L50.3861 87.036L50.9732 75.2932L60.1274 75.6585L58.3008 90.4519C58.3008 90.4519 59.4411 90.7363 59.8665 90.7703C60.5139 90.7427 61.1589 90.6739 61.7975 90.5641C61.7975 90.5641 66.0928 72.1121 66.2207 71.7025C66.2785 71.5792 66.3063 71.444 66.3018 71.3079C66.2973 71.1718 66.2605 71.0387 66.1946 70.9196C66.0772 70.6743 55.5712 68.1431 55.5712 68.1431C55.5712 68.1431 43.249 73.0438 40.9344 72.8454Z" fill="#E9E9F0" stroke="#263238" stroke-linecap="round" stroke-linejoin="round"/>
<path d="M50.9811 75.2904L45.7307 74.9434L50.7488 78.6358L50.9811 75.2904Z" fill="#263238" stroke="#263238" stroke-linecap="round" stroke-linejoin="round"/>
<path d="M40.9501 48.5119C40.9501 48.5119 37.8186 50.3804 37.6125 51.0197C37.4063 51.659 33.1006 62.1363 33.0641 62.5721C33.0275 63.0079 32.2447 71.4836 32.2447 71.4836C32.6755 71.6522 33.1264 71.7645 33.586 71.8176C34.2384 71.8724 35.2143 71.3557 35.2143 71.3557L37.1245 62.4833L40.5508 58.2898L41.5503 61.9901L39.1599 73.2816C39.1599 73.2816 43.1682 74.4454 47.3773 73.2816C51.5865 72.1177 56.3671 68.0808 56.3671 68.0808C56.3671 68.0808 53.9116 63.488 53.2357 62.5538C52.5598 61.6196 51.9753 60.6384 51.9753 60.6384L52.0353 58.6708C52.0353 58.6708 55.6469 62.5407 56.0409 62.4103C56.435 62.2798 64.1618 55.2184 64.1618 55.2184L63.0971 52.9351L56.0644 56.3875C56.0644 56.3875 52.5337 48.3606 51.7926 48.0788C51.0515 47.7969 49.4232 47.6012 49.4232 47.6012C49.4232 47.6012 44.3633 46.3956 40.9501 48.5119Z" fill="#E9E9F0" stroke="#263238" stroke-linecap="round" stroke-linejoin="round"/>
<path d="M46.0752 34.7122C46.3883 35.0715 46.6564 35.4676 46.8737 35.8917C47.2782 36.6537 47.3799 37.4757 47.9958 37.7862C48.6116 38.0968 49.4702 38.0472 49.4467 38.3368C49.4232 38.6265 48.9378 39.2789 48.9378 39.2789C48.9378 39.2789 49.6502 41.9484 49.4832 42.4103C49.3162 42.8722 47.2155 43.8847 47.2155 43.8847V46.2829L44.1128 46.5308C43.5924 45.2132 43.1651 43.8608 42.8341 42.4834C42.4688 40.7402 44.1807 39.7329 44.1389 37.6766C44.0971 35.6203 44.4547 34.493 44.8904 34.4017C45.3262 34.3104 46.0752 34.7122 46.0752 34.7122Z" fill="white" stroke="#263238" stroke-linecap="round" stroke-linejoin="round"/>
<path d="M47.4087 37.8444C47.513 38.1054 47.5 38.3663 47.38 38.4055C47.2599 38.4446 47.0773 38.2802 46.9729 38.0193C46.8685 37.7583 46.8815 37.4974 47.0016 37.4556C47.1216 37.4138 47.3043 37.5809 47.4087 37.8444Z" fill="#263238"/>
<path d="M46.5449 37.2333C46.5449 37.2333 46.5031 36.7114 47.0067 36.8445" stroke="#263238" stroke-linecap="round" stroke-linejoin="round"/>
<path d="M49.1857 40.3701C49.0825 40.4806 48.9483 40.5575 48.8007 40.5905C48.6532 40.6236 48.499 40.6113 48.3585 40.5554" stroke="#263238" stroke-linecap="round" stroke-linejoin="round"/>
<path d="M45.6498 35.7014C45.6498 35.7014 46.3335 37.2149 45.9864 38.2561C45.7567 38.9218 45.4437 39.5557 45.0548 40.1428C45.0548 40.1428 44.3685 41.1553 44.4833 41.8077C44.5982 42.46 45.2871 44.913 45.4906 45.0591L45.6916 45.2053L46.1221 45.6698C46.1221 45.6698 43.8623 47.0606 41.3989 47.3633C38.9355 47.666 37.315 47.0554 36.9914 46.8571C36.78 46.7247 36.5777 46.5782 36.386 46.4187C36.386 46.4187 37.6412 44.258 37.6647 41.9825C37.6881 39.707 36.994 38.3292 37.6647 36.3355C38.3353 34.3418 43.4421 33.3215 43.4421 33.3215C43.4421 33.3215 43.677 32.5699 44.6556 32.6534C45.6341 32.737 46.6127 34.7907 46.6127 34.7907L45.6498 35.7014Z" fill="#263238" stroke="#263238" stroke-linecap="round" stroke-linejoin="round"/>
<path d="M45.3759 40.8993C45.3759 40.8993 44.6139 39.8059 44.1964 40.6696C43.7788 41.5334 45.1149 42.9295 45.7934 42.5172" fill="white"/>
<path d="M45.3759 40.8993C45.3759 40.8993 44.6139 39.8059 44.1964 40.6696C43.7788 41.5334 45.1149 42.9295 45.7934 42.5172" stroke="#263238" stroke-linecap="round" stroke-linejoin="round"/>
<path d="M44.3425 46.0093C44.3425 46.0093 46.8267 45.7849 47.2599 45.8214C47.6931 45.8579 48.7317 46.5495 48.7317 46.5495L48.6612 47.3662C48.6612 47.3662 46.2526 46.7217 44.9139 46.9905C43.5753 47.2593 41.6625 47.8516 41.6625 47.8516L42.0461 46.5677C42.0461 46.5677 43.3534 46.0249 44.3425 46.0093Z" fill="white" stroke="#263238" stroke-linecap="round" stroke-linejoin="round"/>
<path d="M40.9501 48.5116L41.3989 47.3634C41.3989 47.3634 44.6739 46.5623 45.9499 46.4214C47.0627 46.3248 48.1807 46.5342 49.1831 47.0268C49.5205 47.2102 49.7855 47.5028 49.9347 47.8566C49.9347 47.8566 47.3565 47.2538 45.0862 47.5513C43.6804 47.7407 42.2955 48.0623 40.9501 48.5116Z" fill="#E9E9F0" stroke="#263238" stroke-linecap="round" stroke-linejoin="round"/>
<path d="M52.0223 58.6623L48.7395 55.4187C48.7395 55.4187 48.0036 54.4245 48.4185 52.7622" stroke="#263238" stroke-linecap="round" stroke-linejoin="round"/>
<path d="M40.5508 58.2824L38.6198 53.353" stroke="#263238" stroke-linecap="round" stroke-linejoin="round"/>
</svg>
