<svg width="27" height="21" viewBox="0 0 27 21" fill="none" xmlns="http://www.w3.org/2000/svg">
<path d="M9.84003 1.78369H17.1332V14.8956H9.84003V1.78369Z" fill="#FF5F00"/>
<path d="M10.3031 8.33974C10.3031 5.6757 11.5534 3.31272 13.475 1.78373C12.0628 0.671789 10.28 0 8.3352 0C3.72758 0 0 3.72966 0 8.33974C0 12.9497 3.72758 16.6795 8.33509 16.6795C10.2799 16.6795 12.0627 16.0077 13.475 14.8956C11.5534 13.3899 10.3031 11.0038 10.3031 8.33974Z" fill="#EB001B"/>
<path d="M26.9732 8.33974C26.9732 12.9497 23.2457 16.6795 18.6381 16.6795C16.6933 16.6795 14.9106 16.0077 13.4982 14.8956C15.4431 13.3668 16.6702 11.0038 16.6702 8.33974C16.6702 5.6757 15.4199 3.31272 13.4982 1.78373C14.9105 0.671789 16.6933 0 18.6381 0C23.2457 0 26.9732 3.75288 26.9732 8.33974Z" fill="#F79E1B"/>
</svg>
