<svg width="21" height="21" viewBox="0 0 21 21" fill="none" xmlns="http://www.w3.org/2000/svg">
<path d="M6.125 15.75V6.1705C6.12494 5.96691 6.1925 5.76906 6.31708 5.60804C6.44166 5.44701 6.61619 5.33192 6.81327 5.28085C7.01035 5.22978 7.21882 5.24561 7.40592 5.32587C7.59303 5.40612 7.74818 5.54625 7.847 5.72425L13.153 15.2758C13.2518 15.4537 13.407 15.5939 13.5941 15.6741C13.7812 15.7544 13.9896 15.7702 14.1867 15.7191C14.3838 15.6681 14.5583 15.553 14.6829 15.392C14.8075 15.2309 14.8751 15.0331 14.875 14.8295V5.25M4.375 8.75H16.625M4.375 12.25H16.625" stroke="black" stroke-width="2" stroke-linecap="round" stroke-linejoin="round"/>
</svg>
