<svg width="24" height="18" viewBox="0 0 24 18" fill="none" xmlns="http://www.w3.org/2000/svg">
<path fill-rule="evenodd" clip-rule="evenodd" d="M0.75 1.5C0.75 0.671572 1.42157 0 2.25 0H21.75C22.5784 0 23.25 0.671572 23.25 1.5V12C23.25 12.8284 22.5784 13.5 21.75 13.5H2.25C1.42157 13.5 0.75 12.8284 0.75 12V1.5ZM2.25 5.18706V8.31294C2.58272 8.36918 2.90885 8.4628 3.22208 8.59254C3.76804 8.81869 4.26412 9.15016 4.68198 9.56802C5.09984 9.98588 5.43131 10.482 5.65746 11.0279C5.7872 11.3412 5.88082 11.6673 5.93706 12H18.0629C18.2176 11.0848 18.653 10.233 19.318 9.56802C19.983 8.903 20.8348 8.46762 21.75 8.31292V5.18708C20.8348 5.03238 19.983 4.597 19.318 3.93198C18.653 3.26696 18.2176 2.41523 18.0629 1.5H5.93706C5.88082 1.83272 5.7872 2.15885 5.65746 2.47208C5.43131 3.01804 5.09984 3.51412 4.68198 3.93198C4.26412 4.34984 3.76804 4.68131 3.22208 4.90746C2.90885 5.0372 2.58272 5.13082 2.25 5.18706ZM4.40474 1.5C4.3698 1.63533 4.32536 1.76835 4.27164 1.89805C4.12087 2.26203 3.8999 2.59274 3.62132 2.87132C3.34274 3.1499 3.01203 3.37087 2.64805 3.52164C2.51835 3.57536 2.38533 3.6198 2.25 3.65474V1.5H4.40474ZM19.5953 1.5C19.7281 2.01452 19.9965 2.48916 20.3787 2.87132C20.7608 3.25348 21.2355 3.52188 21.75 3.65475V1.5H19.5953ZM21.75 9.84525C21.2355 9.97812 20.7608 10.2465 20.3787 10.6287C19.9965 11.0108 19.7281 11.4855 19.5953 12H21.75V9.84525ZM4.40474 12C4.3698 11.8647 4.32536 11.7317 4.27164 11.6019C4.12087 11.238 3.8999 10.9073 3.62132 10.6287C3.34274 10.3501 3.01203 10.1291 2.64805 9.97836C2.51835 9.92464 2.38533 9.8802 2.25 9.84526V12H4.40474ZM12 3.75C10.3431 3.75 9 5.09315 9 6.75C9 8.40685 10.3431 9.75 12 9.75C13.6569 9.75 15 8.40685 15 6.75C15 5.09315 13.6569 3.75 12 3.75ZM7.5 6.75C7.5 4.26472 9.51472 2.25 12 2.25C14.4853 2.25 16.5 4.26472 16.5 6.75C16.5 9.23528 14.4853 11.25 12 11.25C9.51472 11.25 7.5 9.23528 7.5 6.75ZM2.25 15C2.25 14.5858 2.58579 14.25 3 14.25H21C21.4142 14.25 21.75 14.5858 21.75 15C21.75 15.4142 21.4142 15.75 21 15.75H3C2.58579 15.75 2.25 15.4142 2.25 15ZM3.75 17.25C3.75 16.8358 4.08579 16.5 4.5 16.5H19.5C19.9142 16.5 20.25 16.8358 20.25 17.25C20.25 17.6642 19.9142 18 19.5 18H4.5C4.08579 18 3.75 17.6642 3.75 17.25Z" fill="white"/>
</svg>
