<svg width="20" height="20" viewBox="0 0 20 20" fill="none" xmlns="http://www.w3.org/2000/svg">
<path fill-rule="evenodd" clip-rule="evenodd" d="M19 13C19.4142 13 19.75 13.3358 19.75 13.75V16.375C19.75 17.2701 19.3944 18.1285 18.7615 18.7615C18.1285 19.3944 17.2701 19.75 16.375 19.75H13.75C13.3358 19.75 13 19.4142 13 19C13 18.5858 13.3358 18.25 13.75 18.25H16.375C16.8723 18.25 17.3492 18.0525 17.7008 17.7008C18.0525 17.3492 18.25 16.8723 18.25 16.375V13.75C18.25 13.3358 18.5858 13 19 13Z" fill="white"/>
<path fill-rule="evenodd" clip-rule="evenodd" d="M13 1C13 0.585786 13.3358 0.25 13.75 0.25H16.375C17.2701 0.25 18.1285 0.605579 18.7615 1.23851C19.3944 1.87145 19.75 2.72989 19.75 3.625V6.25C19.75 6.66421 19.4142 7 19 7C18.5858 7 18.25 6.66421 18.25 6.25V3.625C18.25 3.12772 18.0525 2.65081 17.7008 2.29918C17.3492 1.94754 16.8723 1.75 16.375 1.75H13.75C13.3358 1.75 13 1.41421 13 1Z" fill="white"/>
<path fill-rule="evenodd" clip-rule="evenodd" d="M1 13C1.41421 13 1.75 13.3358 1.75 13.75V16.375C1.75 16.8723 1.94754 17.3492 2.29918 17.7008C2.65081 18.0525 3.12772 18.25 3.625 18.25H6.25C6.66421 18.25 7 18.5858 7 19C7 19.4142 6.66421 19.75 6.25 19.75H3.625C2.72989 19.75 1.87145 19.3944 1.23851 18.7615C0.605579 18.1285 0.25 17.2701 0.25 16.375V13.75C0.25 13.3358 0.585786 13 1 13Z" fill="white"/>
<path fill-rule="evenodd" clip-rule="evenodd" d="M3.625 1.75C3.12772 1.75 2.65081 1.94754 2.29918 2.29918C1.94754 2.65081 1.75 3.12772 1.75 3.625V6.25C1.75 6.66421 1.41421 7 1 7C0.585786 7 0.25 6.66421 0.25 6.25V3.625C0.25 2.72989 0.60558 1.87145 1.23851 1.23851C1.87145 0.60558 2.72989 0.25 3.625 0.25H6.25C6.66421 0.25 7 0.585786 7 1C7 1.41421 6.66421 1.75 6.25 1.75H3.625Z" fill="white"/>
</svg>
