<svg width="15" height="15" viewBox="0 0 15 15" fill="none" xmlns="http://www.w3.org/2000/svg">
<path d="M10.0448 1.14426C9.39862 0.44666 8.49616 0.0625 7.50007 0.0625C6.49866 0.0625 5.59321 0.444336 4.95007 1.13762C4.29995 1.83854 3.98319 2.79113 4.05757 3.81977C4.20499 5.84914 5.74927 7.5 7.50007 7.5C9.25087 7.5 10.7925 5.84947 10.9422 3.82043C11.0176 2.80109 10.6989 1.85049 10.0448 1.14426Z" fill="white"/>
<path d="M13.3438 14.9375H1.65632C1.50334 14.9395 1.35184 14.9074 1.21284 14.8434C1.07385 14.7795 0.950852 14.6854 0.852802 14.5679C0.636982 14.31 0.54999 13.9577 0.614404 13.6014C0.894638 12.0468 1.76921 10.741 3.14382 9.82422C4.36503 9.01041 5.91196 8.5625 7.50007 8.5625C9.08817 8.5625 10.6351 9.01074 11.8563 9.82422C13.2309 10.7406 14.1055 12.0465 14.3857 13.6011C14.4501 13.9573 14.3632 14.3096 14.1473 14.5676C14.0493 14.6851 13.9263 14.7793 13.7873 14.8433C13.6483 14.9073 13.4968 14.9394 13.3438 14.9375Z" fill="white"/>
</svg>
