<svg width="36" height="36" viewBox="0 0 36 36" fill="none" xmlns="http://www.w3.org/2000/svg">
<rect width="36" height="36" rx="10" fill="#E9E9F0"/>
<path d="M21.5926 9.02719C20.6804 8.04234 19.4064 7.5 18.0001 7.5C16.5864 7.5 15.3081 8.03906 14.4001 9.01781C13.4823 10.0073 13.0351 11.3522 13.1401 12.8044C13.3483 15.6694 15.5284 18 18.0001 18C20.4718 18 22.6483 15.6698 22.8597 12.8053C22.9661 11.3662 22.5161 10.0242 21.5926 9.02719Z" fill="#A7A8CD"/>
<path d="M26.2501 28.5H9.75013C9.53416 28.5028 9.32028 28.4574 9.12405 28.3672C8.92782 28.2769 8.75418 28.1441 8.61576 27.9783C8.31107 27.6141 8.18826 27.1167 8.27919 26.6137C8.67482 24.4191 9.90951 22.5755 11.8501 21.2812C13.5742 20.1323 15.7581 19.5 18.0001 19.5C20.2422 19.5 22.4261 20.1328 24.1501 21.2812C26.0908 22.575 27.3254 24.4186 27.7211 26.6133C27.812 27.1162 27.6892 27.6136 27.3845 27.9778C27.2461 28.1437 27.0725 28.2766 26.8763 28.367C26.68 28.4573 26.4661 28.5028 26.2501 28.5Z" fill="#A7A8CD"/>
</svg>
