<svg width="36" height="36" viewBox="0 0 36 36" fill="none" xmlns="http://www.w3.org/2000/svg">
<rect width="36" height="36" rx="10" fill="#E9E9F0"/>
<path d="M15.25 28L14.85 24.8C14.6333 24.7167 14.429 24.6167 14.237 24.5C14.045 24.3833 13.8577 24.2583 13.675 24.125L10.7 25.375L7.95001 20.625L10.525 18.675C10.5083 18.5583 10.5 18.4457 10.5 18.337V17.663C10.5 17.5543 10.5083 17.4417 10.525 17.325L7.95001 15.375L10.7 10.625L13.675 11.875C13.8583 11.7417 14.05 11.6167 14.25 11.5C14.45 11.3833 14.65 11.2833 14.85 11.2L15.25 8H20.75L21.15 11.2C21.3667 11.2833 21.571 11.3833 21.763 11.5C21.955 11.6167 22.1423 11.7417 22.325 11.875L25.3 10.625L28.05 15.375L25.475 17.325C25.4917 17.4417 25.5 17.5543 25.5 17.663V18.337C25.5 18.4457 25.4833 18.5583 25.45 18.675L28.025 20.625L25.275 25.375L22.325 24.125C22.1417 24.2583 21.95 24.3833 21.75 24.5C21.55 24.6167 21.35 24.7167 21.15 24.8L20.75 28H15.25ZM18.05 21.5C19.0167 21.5 19.8417 21.1583 20.525 20.475C21.2083 19.7917 21.55 18.9667 21.55 18C21.55 17.0333 21.2083 16.2083 20.525 15.525C19.8417 14.8417 19.0167 14.5 18.05 14.5C17.0667 14.5 16.2373 14.8417 15.562 15.525C14.8867 16.2083 14.5493 17.0333 14.55 18C14.55 18.9667 14.8873 19.7917 15.562 20.475C16.2367 21.1583 17.066 21.5 18.05 21.5Z" fill="#A7A8CD"/>
</svg>
