<svg width="175" height="175" viewBox="0 0 175 175" fill="none" xmlns="http://www.w3.org/2000/svg">
<path d="M88.4927 16.4075C48.5093 15.8674 15.8677 48.509 16.4077 88.4924C16.9409 126.839 48.1641 158.062 86.5103 158.595C126.501 159.142 159.135 126.5 158.588 86.5169C158.062 48.1638 126.839 16.9407 88.4927 16.4075ZM82.7539 82.1931L100.374 62.0271C101.328 60.9348 102.677 60.2664 104.125 60.1689C105.572 60.0715 106.999 60.553 108.091 61.5076C109.184 62.4621 109.852 63.8115 109.949 65.2589C110.047 66.7062 109.565 68.133 108.611 69.2254L90.9912 89.3914C90.5186 89.9322 89.944 90.3747 89.3004 90.6935C88.6567 91.0124 87.9566 91.2013 87.2399 91.2495C86.5233 91.2978 85.8041 91.2044 85.1236 90.9747C84.443 90.745 83.8143 90.3835 83.2735 89.9109C82.7326 89.4383 82.2901 88.8637 81.9713 88.2201C81.6525 87.5764 81.4635 86.8763 81.4153 86.1596C81.367 85.443 81.4604 84.7238 81.6901 84.0432C81.9198 83.3627 82.2813 82.734 82.7539 82.1931ZM69.4717 113.245C68.4462 114.27 67.0558 114.846 65.606 114.846C64.1562 114.846 62.7657 114.27 61.7403 113.245L45.3511 96.8391C44.8434 96.331 44.4408 95.7279 44.1663 95.0642C43.8917 94.4005 43.7505 93.6892 43.7509 92.971C43.7512 92.2527 43.893 91.5416 44.1681 90.8781C44.4433 90.2147 44.8464 89.6119 45.3545 89.1043C45.8626 88.5966 46.4657 88.194 47.1294 87.9194C47.7931 87.6449 48.5044 87.5037 49.2226 87.504C49.9409 87.5043 50.6521 87.6461 51.3155 87.9213C51.979 88.1964 52.5817 88.5996 53.0894 89.1077L69.4956 105.514C70.5173 106.543 71.0886 107.935 71.0842 109.385C71.0797 110.834 70.4997 112.223 69.4717 113.245ZM129.901 69.2254L91.6612 112.975C91.1685 113.54 90.565 113.997 89.8883 114.319C89.2115 114.64 88.4759 114.819 87.7271 114.845H87.5425C86.8239 114.845 86.1123 114.704 85.4484 114.429C84.7845 114.153 84.1813 113.75 83.6734 113.242L67.2876 96.8357C66.2624 95.8095 65.6867 94.4181 65.6874 92.9676C65.688 91.517 66.2649 90.1261 67.291 89.1008C68.3172 88.0756 69.7086 87.5 71.1592 87.5006C72.6097 87.5013 74.0006 88.0781 75.0259 89.1043L85.2114 99.3001C85.4762 99.5649 85.7926 99.7726 86.1409 99.9101C86.4893 100.048 86.8622 100.112 87.2365 100.1C87.6108 100.087 87.9785 99.9979 88.3169 99.8375C88.6553 99.677 88.9571 99.4487 89.2036 99.1668L121.674 62.0271C122.629 60.9348 123.978 60.2664 125.426 60.1689C126.873 60.0715 128.3 60.553 129.392 61.5076C130.484 62.4621 131.153 63.8115 131.25 65.2589C131.348 66.7062 130.866 68.133 129.912 69.2254H129.901Z" fill="#4548C7"/>
</svg>
