<svg width="30" height="30" viewBox="0 0 30 30" fill="none" xmlns="http://www.w3.org/2000/svg">
<rect opacity="0.2" width="30" height="30" rx="8" fill="#F42B5B"/>
<path d="M21.1875 9.375H17.8125V8.53125C17.8125 8.15829 17.6643 7.8006 17.4006 7.53688C17.1369 7.27316 16.7792 7.125 16.4062 7.125H13.5938C13.2208 7.125 12.8631 7.27316 12.5994 7.53688C12.3357 7.8006 12.1875 8.15829 12.1875 8.53125V9.375H8.8125C8.66332 9.375 8.52024 9.43426 8.41475 9.53975C8.30926 9.64524 8.25 9.78832 8.25 9.9375C8.25 10.0867 8.30926 10.2298 8.41475 10.3352C8.52024 10.4407 8.66332 10.5 8.8125 10.5H9.41016L10.0781 21.2198C10.128 22.1638 10.8516 22.875 11.7656 22.875H18.2344C19.153 22.875 19.8621 22.1796 19.9219 21.2227L20.5898 10.5H21.1875C21.3367 10.5 21.4798 10.4407 21.5852 10.3352C21.6907 10.2298 21.75 10.0867 21.75 9.9375C21.75 9.78832 21.6907 9.64524 21.5852 9.53975C21.4798 9.43426 21.3367 9.375 21.1875 9.375ZM12.77 20.625H12.75C12.6042 20.6251 12.4641 20.5686 12.3592 20.4674C12.2542 20.3662 12.1927 20.2282 12.1875 20.0825L11.9062 12.2075C11.9009 12.0584 11.9551 11.9132 12.0568 11.8039C12.1586 11.6947 12.2995 11.6303 12.4487 11.625C12.5979 11.6197 12.7431 11.6739 12.8523 11.7756C12.9616 11.8773 13.0259 12.0183 13.0312 12.1675L13.3125 20.0425C13.3152 20.1163 13.3033 20.19 13.2774 20.2593C13.2516 20.3286 13.2124 20.3921 13.162 20.4462C13.1116 20.5003 13.0511 20.5439 12.9838 20.5746C12.9166 20.6053 12.8439 20.6224 12.77 20.625ZM15.5625 20.0625C15.5625 20.2117 15.5032 20.3548 15.3977 20.4602C15.2923 20.5657 15.1492 20.625 15 20.625C14.8508 20.625 14.7077 20.5657 14.6023 20.4602C14.4968 20.3548 14.4375 20.2117 14.4375 20.0625V12.1875C14.4375 12.0383 14.4968 11.8952 14.6023 11.7898C14.7077 11.6843 14.8508 11.625 15 11.625C15.1492 11.625 15.2923 11.6843 15.3977 11.7898C15.5032 11.8952 15.5625 12.0383 15.5625 12.1875V20.0625ZM16.6875 9.375H13.3125V8.53125C13.3121 8.4942 13.3191 8.45743 13.333 8.42312C13.347 8.38881 13.3677 8.35763 13.3939 8.33143C13.4201 8.30523 13.4513 8.28453 13.4856 8.27055C13.5199 8.25656 13.5567 8.24958 13.5938 8.25H16.4062C16.4433 8.24958 16.4801 8.25656 16.5144 8.27055C16.5487 8.28453 16.5799 8.30523 16.6061 8.33143C16.6323 8.35763 16.653 8.38881 16.667 8.42312C16.6809 8.45743 16.6879 8.4942 16.6875 8.53125V9.375ZM17.8125 20.0825C17.8073 20.2282 17.7458 20.3662 17.6408 20.4674C17.5359 20.5686 17.3958 20.6251 17.25 20.625H17.2296C17.1558 20.6224 17.0831 20.6052 17.0159 20.5745C16.9487 20.5438 16.8882 20.5002 16.8378 20.4461C16.7875 20.392 16.7483 20.3285 16.7225 20.2592C16.6967 20.19 16.6848 20.1163 16.6875 20.0425L16.9688 12.1675C16.9714 12.0936 16.9885 12.021 17.0192 11.9537C17.0499 11.8865 17.0936 11.826 17.1477 11.7756C17.2018 11.7252 17.2653 11.686 17.3345 11.6601C17.4038 11.6343 17.4774 11.6224 17.5513 11.625C17.6252 11.6276 17.6978 11.6448 17.765 11.6755C17.8323 11.7062 17.8928 11.7498 17.9432 11.8039C17.9935 11.858 18.0328 11.9215 18.0586 11.9908C18.0844 12.06 18.0964 12.1337 18.0938 12.2075L17.8125 20.0825Z" fill="#F42B5B"/>
</svg>
