<svg width="36" height="36" viewBox="0 0 36 36" fill="none" xmlns="http://www.w3.org/2000/svg">
<rect width="36" height="36" rx="10" fill="#E9E9F0"/>
<path d="M11 12H25C25.55 12 26 11.55 26 11C26 10.45 25.55 10 25 10H11C10.45 10 10 10.45 10 11C10 11.55 10.45 12 11 12ZM26.16 13.8C26.07 13.34 25.66 13 25.18 13H10.82C10.34 13 9.93001 13.34 9.84001 13.8L8.84001 18.8C8.72001 19.42 9.19001 20 9.82001 20H10V25C10 25.55 10.45 26 11 26H19C19.55 26 20 25.55 20 25V20H24V25C24 25.55 24.45 26 25 26C25.55 26 26 25.55 26 25V20H26.18C26.81 20 27.28 19.42 27.16 18.8L26.16 13.8ZM18 24H12V20H18V24Z" fill="#A7A8CD"/>
</svg>
