<svg width="36" height="36" viewBox="0 0 36 36" fill="none" xmlns="http://www.w3.org/2000/svg">
<rect width="36" height="36" rx="10" fill="#E9E9F0"/>
<path fill-rule="evenodd" clip-rule="evenodd" d="M13.293 11.8749H25.4766C25.6518 11.8748 25.8268 11.8859 26.0006 11.9082C25.9417 11.4946 25.7997 11.0973 25.583 10.7401C25.3664 10.383 25.0797 10.0734 24.7402 9.83C24.4007 9.58664 24.0154 9.41455 23.6076 9.32411C23.1998 9.23367 22.7779 9.22676 22.3673 9.30378L10.5177 11.3268C10.3556 11.3517 10.1917 11.3793 10.0276 11.4099H10.0172C9.94476 11.4237 9.87309 11.4401 9.80229 11.459C8.02135 11.9071 7.5 13.522 7.5 14.4999V15.6286C7.4846 15.7511 7.4767 15.8751 7.47656 15.9999V24.9999C7.47743 25.7953 7.79378 26.5578 8.3562 27.1203C8.91862 27.6827 9.68118 27.999 10.4766 27.9999H25.4766C26.2719 27.999 27.0345 27.6827 27.5969 27.1203C28.1593 26.5578 28.4757 25.7953 28.4766 24.9999V15.9999C28.4757 15.2045 28.1593 14.442 27.5969 13.8795C27.0345 13.3171 26.2719 13.0008 25.4766 12.9999H13.5C12.7064 12.9999 12.6194 12.0381 13.293 11.8749ZM23.25 21.9999C22.9533 21.9999 22.6633 21.9119 22.4166 21.7471C22.17 21.5823 21.9777 21.348 21.8642 21.0739C21.7506 20.7998 21.7209 20.4982 21.7788 20.2073C21.8367 19.9163 21.9796 19.649 22.1893 19.4392C22.3991 19.2295 22.6664 19.0866 22.9574 19.0287C23.2483 18.9709 23.5499 19.0006 23.824 19.1141C24.0981 19.2276 24.3324 19.4199 24.4972 19.6666C24.662 19.9132 24.75 20.2032 24.75 20.4999C24.75 20.8977 24.592 21.2793 24.3107 21.5606C24.0294 21.8419 23.6478 21.9999 23.25 21.9999Z" fill="#4548C7"/>
</svg>
